<svg height="512pt" viewBox="0 -21 512 512" width="512pt" xmlns="http://www.w3.org/2000/svg"><path d="m497 0h-482c-8.285156 0-15 6.714844-15 15v440c0 8.285156 6.714844 15 15 15h482c8.285156 0 15-6.714844 15-15v-440c0-8.285156-6.714844-15-15-15zm-15 440h-452v-410h452zm0 0"/><path d="m76 390c8.285156 0 15-6.714844 15-15v-45h45c8.285156 0 15-6.714844 15-15v-60c0-8.285156-6.714844-15-15-15h-60c-8.285156 0-15 6.714844-15 15v120c0 8.285156 6.714844 15 15 15zm15-120h30v30h-30zm0 0"/><path d="m186 390h40c8.285156 0 15-6.714844 15-15s-6.714844-15-15-15h-25v-105c0-8.285156-6.714844-15-15-15s-15 6.714844-15 15v120c0 8.285156 6.714844 15 15 15zm0 0"/><path d="m331 240h-60c-8.285156 0-15 6.714844-15 15v120c0 8.285156 6.714844 15 15 15s15-6.714844 15-15v-45h30v45c0 8.285156 6.714844 15 15 15s15-6.714844 15-15v-120c0-8.285156-6.714844-15-15-15zm-45 60v-30h30v30zm0 0"/><path d="m381 330h15v45c0 8.285156 6.714844 15 15 15s15-6.714844 15-15v-45h15c8.285156 0 15-6.714844 15-15v-60c0-8.285156-6.714844-15-15-15s-15 6.714844-15 15v45h-30v-45c0-8.285156-6.714844-15-15-15s-15 6.714844-15 15v60c0 8.285156 6.714844 15 15 15zm0 0"/><path d="m201.898438 206.625c2.457031 1.574219 5.273437 2.375 8.101562 2.375 2.125 0 4.257812-.449219 6.25-1.363281l120-55c5.332031-2.445313 8.75-7.773438 8.75-13.636719s-3.417969-11.191406-8.75-13.636719l-120-55c-4.644531-2.128906-10.050781-1.746093-14.351562 1.011719-4.296876 2.761719-6.898438 7.515625-6.898438 12.625v110c0 5.109375 2.601562 9.863281 6.898438 12.625zm23.101562-99.25 69 31.625-69 31.625zm0 0"/></svg>