<svg height="512pt" viewBox="0 -21 512 512" width="512pt" xmlns="http://www.w3.org/2000/svg"><path d="m225 107.375v63.25l69-31.625zm0 0"/><path d="m286 270h30v30h-30zm0 0"/><path d="m91 270h30v30h-30zm0 0"/><path d="m497 0h-482c-8.285156 0-15 6.714844-15 15v440c0 8.285156 6.714844 15 15 15h482c8.285156 0 15-6.714844 15-15v-440c0-8.285156-6.714844-15-15-15zm-302 84c0-5.109375 2.601562-9.863281 6.898438-12.625 4.300781-2.757812 9.707031-3.140625 14.351562-1.011719l120 55c5.332031 2.445313 8.75 7.773438 8.75 13.636719s-3.417969 11.191406-8.75 13.636719l-120 55c-1.992188.914062-4.125 1.363281-6.25 1.363281-2.828125 0-5.644531-.800781-8.101562-2.375-4.296876-2.761719-6.898438-7.515625-6.898438-12.625zm-44 231c0 8.285156-6.714844 15-15 15h-45v45c0 8.285156-6.714844 15-15 15s-15-6.714844-15-15v-120c0-8.285156 6.714844-15 15-15h60c8.285156 0 15 6.714844 15 15zm75 75h-40c-8.285156 0-15-6.714844-15-15v-120c0-8.285156 6.714844-15 15-15s15 6.714844 15 15v105h25c8.285156 0 15 6.714844 15 15s-6.714844 15-15 15zm120-15c0 8.285156-6.714844 15-15 15s-15-6.714844-15-15v-45h-30v45c0 8.285156-6.714844 15-15 15s-15-6.714844-15-15v-120c0-8.285156 6.714844-15 15-15h60c8.285156 0 15 6.714844 15 15zm110-60c0 8.285156-6.714844 15-15 15h-15v45c0 8.285156-6.714844 15-15 15s-15-6.714844-15-15v-45h-15c-8.285156 0-15-6.714844-15-15v-60c0-8.285156 6.714844-15 15-15s15 6.714844 15 15v45h30v-45c0-8.285156 6.714844-15 15-15s15 6.714844 15 15zm0 0"/></svg>